Coordinates
version=1
nRows=27
nColumns=12
inDegrees=yes

Units are S.I. units (second, meters, Newtons, ...)
Angles are in degrees

endheader
time	SC_y	SC_z	SC_x	AC_y	AC_z	AC_x	GH_y	GH_z	GH_yy	EL_x	PS_y
       0.0              -34.17         -4.152          27.24          49.91         -13.23          -12.3         -55.24          50.24          41.15          63.26          106.1
   0.04897              -34.18          -4.15          27.24          49.91         -13.23          -12.3         -55.21          50.23          41.15          63.25          106.1
   0.09795              -34.18         -4.148          27.23          49.91         -13.23          -12.3         -55.19          50.22          41.14          63.25          106.1
    0.1469              -34.18         -4.145          27.23          49.91         -13.23          -12.3         -55.16          50.22          41.14          63.24          106.1
    0.1959              -34.19         -4.143          27.23          49.91         -13.23          -12.3         -55.13          50.21          41.14          63.23          106.1
    0.2449              -34.19          -4.14          27.23          49.91         -13.23          -12.3         -55.09           50.2          41.14          63.22          106.1
    0.2938              -34.19         -4.137          27.22          49.91         -13.23          -12.3         -55.06           50.2          41.14          63.21          106.1
    0.3428               -34.2         -4.134          27.22          49.91         -13.22          -12.3         -55.02          50.19          41.13           63.2          106.1
    0.3918               -34.2         -4.131          27.22          49.91         -13.22          -12.3         -54.98          50.18          41.13          63.19          106.1
    0.4408              -34.21         -4.128          27.21          49.91         -13.22          -12.3         -54.93          50.17          41.13          63.18          106.1
    0.4897              -34.21         -4.124          27.21          49.91         -13.22          -12.3         -54.89          50.16          41.13          63.17          106.2
    0.5387              -34.22          -4.12           27.2          49.91         -13.22          -12.3         -54.84          50.15          41.12          63.16          106.2
    0.5877              -34.23         -4.116           27.2          49.91         -13.22          -12.3         -54.78          50.13          41.12          63.14          106.2
    0.6366              -34.23         -4.111          27.19          49.91         -13.21          -12.3         -54.72          50.12          41.12          63.13          106.2
    0.6856              -34.24         -4.106          27.19          49.91         -13.21          -12.3         -54.66          50.11          41.12          63.11          106.2
    0.7346              -34.25         -4.101          27.18          49.91         -13.21          -12.3         -54.59          50.09          41.11          63.09          106.2
    0.7836              -34.26         -4.095          27.17          49.91         -13.21          -12.3         -54.51          50.08          41.11          63.07          106.2
    0.8325              -34.26         -4.088          27.17           49.9         -13.21          -12.3         -54.43          50.06           41.1          63.05          106.2
    0.8815              -34.27         -4.081          27.16           49.9          -13.2          -12.3         -54.34          50.04           41.1          63.03          106.2
    0.9305              -34.29         -4.073          27.15           49.9          -13.2          -12.3         -54.24          50.02          41.09           63.0          106.2
    0.9795               -34.3         -4.065          27.14           49.9          -13.2          -12.3         -54.14          49.99          41.09          62.97          106.3
     1.028              -34.31         -4.056          27.13           49.9         -13.19          -12.3         -54.02          49.97          41.08          62.94          106.3
     1.077              -34.33         -4.045          27.12           49.9         -13.19          -12.3         -53.89          49.94          41.07          62.91          106.3
     1.126              -34.34         -4.034           27.1           49.9         -13.18          -12.3         -53.74          49.91          41.06          62.87          106.3
     1.175              -34.36         -4.021          27.09          49.89         -13.18          -12.3         -53.58          49.87          41.06          62.83          106.3
     1.224              -34.38         -4.007          27.07          49.89         -13.17          -12.3          -53.4          49.83          41.05          62.78          106.4
     1.273               -34.4         -3.991          27.05          49.89         -13.16          -12.3          -53.2          49.79          41.04          62.73          106.4
